<?xml version="1.0" encoding="UTF-8" standalone="no"?>
<!DOCTYPE svg PUBLIC "-//W3C//DTD SVG 1.1//EN"
 "http://www.w3.org/Graphics/SVG/1.1/DTD/svg11.dtd">
<!-- Generated by graphviz version 2.44.1 (0)
 -->
<!-- Title: a Pages: 1 -->
<svg width="560pt" height="332pt"
 viewBox="0.00 0.00 559.83 332.00" xmlns="http://www.w3.org/2000/svg" xmlns:xlink="http://www.w3.org/1999/xlink">
<g id="graph0" class="graph" transform="scale(1 1) rotate(0) translate(4 328)">
<title>a</title>
<polygon fill="white" stroke="transparent" points="-4,4 -4,-328 555.83,-328 555.83,4 -4,4"/>
<!-- backend sieciowy -->
<g id="node1" class="node">
<title>backend sieciowy</title>
<ellipse fill="none" stroke="black" cx="91.64" cy="-306" rx="91.78" ry="18"/>
<text text-anchor="middle" x="91.64" y="-302.3" font-family="Times,serif" font-size="14.00">backend sieciowy</text>
</g>
<!-- tryb &#39;live&#39; -->
<g id="node2" class="node">
<title>tryb &#39;live&#39;</title>
<ellipse fill="none" stroke="black" cx="284.64" cy="-234" rx="54.69" ry="18"/>
<text text-anchor="middle" x="284.64" y="-230.3" font-family="Times,serif" font-size="14.00">tryb &#39;live&#39;</text>
</g>
<!-- backend sieciowy&#45;&gt;tryb &#39;live&#39; -->
<g id="edge1" class="edge">
<title>backend sieciowy&#45;&gt;tryb &#39;live&#39;</title>
<path fill="none" stroke="black" d="M133.52,-289.81C164.87,-278.44 207.68,-262.91 239.73,-251.29"/>
<polygon fill="black" stroke="black" points="241.11,-254.51 249.31,-247.81 238.72,-247.93 241.11,-254.51"/>
</g>
<!-- wybór trybu -->
<g id="node5" class="node">
<title>wybór trybu</title>
<ellipse fill="none" stroke="black" cx="359.64" cy="-162" rx="67.69" ry="18"/>
<text text-anchor="middle" x="359.64" y="-158.3" font-family="Times,serif" font-size="14.00">wybór trybu</text>
</g>
<!-- tryb &#39;live&#39;&#45;&gt;wybór trybu -->
<g id="edge4" class="edge">
<title>tryb &#39;live&#39;&#45;&gt;wybór trybu</title>
<path fill="none" stroke="black" d="M302.04,-216.76C311.72,-207.73 323.94,-196.33 334.63,-186.35"/>
<polygon fill="black" stroke="black" points="337.16,-188.77 342.08,-179.39 332.38,-183.65 337.16,-188.77"/>
</g>
<!-- backend z pliku -->
<g id="node3" class="node">
<title>backend z pliku</title>
<ellipse fill="none" stroke="black" cx="284.64" cy="-306" rx="83.39" ry="18"/>
<text text-anchor="middle" x="284.64" y="-302.3" font-family="Times,serif" font-size="14.00">backend z pliku</text>
</g>
<!-- backend z pliku&#45;&gt;tryb &#39;live&#39; -->
<g id="edge2" class="edge">
<title>backend z pliku&#45;&gt;tryb &#39;live&#39;</title>
<path fill="none" stroke="black" d="M284.64,-287.7C284.64,-279.98 284.64,-270.71 284.64,-262.11"/>
<polygon fill="black" stroke="black" points="288.14,-262.1 284.64,-252.1 281.14,-262.1 288.14,-262.1"/>
</g>
<!-- tryb statyczny -->
<g id="node4" class="node">
<title>tryb statyczny</title>
<ellipse fill="none" stroke="black" cx="451.64" cy="-234" rx="77.19" ry="18"/>
<text text-anchor="middle" x="451.64" y="-230.3" font-family="Times,serif" font-size="14.00">tryb statyczny</text>
</g>
<!-- tryb statyczny&#45;&gt;wybór trybu -->
<g id="edge3" class="edge">
<title>tryb statyczny&#45;&gt;wybór trybu</title>
<path fill="none" stroke="black" d="M429.84,-216.41C417.72,-207.19 402.47,-195.59 389.29,-185.55"/>
<polygon fill="black" stroke="black" points="391.05,-182.5 380.97,-179.23 386.81,-188.07 391.05,-182.5"/>
</g>
<!-- nakładka graficzna -->
<g id="node7" class="node">
<title>nakładka graficzna</title>
<ellipse fill="none" stroke="black" cx="296.64" cy="-90" rx="98.28" ry="18"/>
<text text-anchor="middle" x="296.64" y="-86.3" font-family="Times,serif" font-size="14.00">nakładka graficzna</text>
</g>
<!-- wybór trybu&#45;&gt;nakładka graficzna -->
<g id="edge6" class="edge">
<title>wybór trybu&#45;&gt;nakładka graficzna</title>
<path fill="none" stroke="black" d="M344.71,-144.41C336.98,-135.82 327.39,-125.16 318.81,-115.63"/>
<polygon fill="black" stroke="black" points="321.19,-113.05 311.9,-107.96 315.99,-117.73 321.19,-113.05"/>
</g>
<!-- ładowanie pliku -->
<g id="node6" class="node">
<title>ładowanie pliku</title>
<ellipse fill="none" stroke="black" cx="468.64" cy="-306" rx="83.39" ry="18"/>
<text text-anchor="middle" x="468.64" y="-302.3" font-family="Times,serif" font-size="14.00">ładowanie pliku</text>
</g>
<!-- ładowanie pliku&#45;&gt;tryb statyczny -->
<g id="edge5" class="edge">
<title>ładowanie pliku&#45;&gt;tryb statyczny</title>
<path fill="none" stroke="black" d="M464.44,-287.7C462.55,-279.9 460.27,-270.51 458.16,-261.83"/>
<polygon fill="black" stroke="black" points="461.56,-261 455.8,-252.1 454.75,-262.65 461.56,-261"/>
</g>
<!-- ustawienia -->
<g id="node8" class="node">
<title>ustawienia</title>
<ellipse fill="none" stroke="black" cx="359.64" cy="-18" rx="61.19" ry="18"/>
<text text-anchor="middle" x="359.64" y="-14.3" font-family="Times,serif" font-size="14.00">ustawienia</text>
</g>
<!-- nakładka graficzna&#45;&gt;ustawienia -->
<g id="edge8" class="edge">
<title>nakładka graficzna&#45;&gt;ustawienia</title>
<path fill="none" stroke="black" d="M311.89,-72.05C319.63,-63.46 329.17,-52.86 337.68,-43.4"/>
<polygon fill="black" stroke="black" points="340.44,-45.56 344.53,-35.79 335.24,-40.88 340.44,-45.56"/>
</g>
<!-- ustawienia&#45;&gt;wybór trybu -->
<g id="edge7" class="edge">
<title>ustawienia&#45;&gt;wybór trybu</title>
<path fill="none" stroke="black" d="M378.2,-35.16C387.79,-44.77 398.53,-57.83 403.64,-72 409.07,-87.05 409.07,-92.95 403.64,-108 399.83,-118.57 392.88,-128.52 385.62,-136.88"/>
<polygon fill="black" stroke="black" points="382.9,-134.67 378.66,-144.38 388.03,-139.44 382.9,-134.67"/>
</g>
</g>
</svg>
